<svg xmlns="http://www.w3.org/2000/svg" width="67" height="47" fill="none" viewBox="0 0 67 47">
  <g clip-path="url(#clip0)">
    <path fill="#DEE4E6" d="M0 0h67v47H0z"/>
    <path fill="#9CA7AE" d="M28.796 18.98c0 .529-.192.985-.576 1.369-.384.384-.84.576-1.368.576-.552 0-1.008-.192-1.368-.576a1.869 1.869 0 01-.576-1.368c0-.552.192-1.008.576-1.368.36-.384.816-.576 1.368-.576.528 0 .984.192 1.368.576.384.36.576.816.576 1.368zm12.672 0c0 .529-.192.985-.576 1.369-.384.384-.84.576-1.368.576-.552 0-1.008-.192-1.368-.576a1.869 1.869 0 01-.576-1.368c0-.552.192-1.008.576-1.368.36-.384.816-.576 1.368-.576.528 0 .984.192 1.368.576.384.36.576.816.576 1.368zM46.83 26.136c-.288 1.92-1.032 3.48-2.232 4.68-1.152 1.2-2.592 1.8-4.32 1.8-1.296 0-2.448-.168-3.456-.504-1.008-.336-2.208-.864-3.6-1.584-1.248-.624-2.328-1.104-3.24-1.44-.912-.336-1.92-.504-3.024-.504-1.152 0-2.136.312-2.952.936-.816.624-1.392 1.44-1.728 2.448-.288.048-.648 0-1.08-.144a8.04 8.04 0 01-1.08-.648c.288-2.112 1.128-3.672 2.52-4.68 1.392-1.056 2.976-1.584 4.752-1.584 1.296 0 2.472.168 3.528.504 1.056.336 2.232.84 3.528 1.512 1.248.624 2.328 1.104 3.24 1.44.96.336 2.016.504 3.168.504 1.056 0 1.848-.264 2.376-.792.528-.576 1.032-1.44 1.512-2.592.96 0 1.656.216 2.088.648z"/>
  </g>
  <defs>
    <clipPath id="clip0">
      <path fill="#fff" d="M0 0h67v47H0z"/>
    </clipPath>
  </defs>
</svg>
